<svg width="24" height="24" viewBox="0 0 24 24" fill="none" xmlns="http://www.w3.org/2000/svg">
<path d="M11.9353 1.44C13.1523 3.53064 14.3798 5.61512 15.5836 7.71366C13.6379 11.146 11.7202 14.5949 9.70859 17.9895C8.93678 19.2925 8.18605 20.6078 7.42302 21.9152C4.94868 21.9302 2.47434 21.9293 0 21.9258C0.0755122 21.7563 0.150146 21.586 0.241463 21.4244C4.13737 14.7618 8.0482 8.10791 11.9353 1.44Z" fill="#AE285D"/>
<path d="M11.9362 14.1858C14.4193 14.1849 16.9024 14.1673 19.3856 14.2086C20.8642 16.7865 22.3902 19.3364 23.8557 21.9214C21.3726 21.9337 18.8903 21.924 16.4072 21.9222C14.9295 19.3355 13.3859 16.7883 11.9362 14.1858Z" fill="#AE285D"/>
</svg>
