<svg width="36" height="36" viewBox="0 0 36 36" fill="none" xmlns="http://www.w3.org/2000/svg">
<path d="M34 36H2C0.9 36 0 35.1 0 34V2C0 0.9 0.9 0 2 0H34C35.1 0 36 0.9 36 2V34C36 35.1 35.1 36 34 36Z" fill="#003BFF"/>
<path d="M15.2932 26.7072L7.29325 18.7072C6.90225 18.3162 6.90225 17.6832 7.29325 17.2932L8.70725 15.8792C9.09825 15.4882 9.73125 15.4882 10.1213 15.8792L16.0002 21.7582L26.8793 10.8792C27.2703 10.4882 27.9032 10.4882 28.2932 10.8792L29.7073 12.2932C30.0983 12.6842 30.0983 13.3172 29.7073 13.7072L16.7073 26.7072C16.3173 27.0982 15.6832 27.0982 15.2932 26.7072Z" fill="white"/>
</svg>
