<svg width="16" height="16" viewBox="0 0 16 16" fill="none" xmlns="http://www.w3.org/2000/svg">
<g clip-path="url(#clip0_3_35626)">
<path d="M15 7.92882L8.47173 1.40056C8.35545 1.28395 8.2121 1.19795 8.05449 1.15023C7.89688 1.1025 7.72991 1.09454 7.56847 1.12706L2.52752 2.13524C2.43074 2.15462 2.34185 2.2022 2.27206 2.27199C2.20227 2.34179 2.15468 2.43067 2.1353 2.52745L1.12713 7.56841C1.09467 7.72984 1.10266 7.8968 1.15038 8.0544C1.1981 8.212 1.28407 8.35535 1.40063 8.47166L7.92882 14.9999C8.02168 15.0927 8.13192 15.1664 8.25325 15.2167C8.37458 15.2669 8.50463 15.2928 8.63596 15.2928C8.7673 15.2928 8.89734 15.267 9.01868 15.2167C9.14002 15.1665 9.25026 15.0928 9.34313 14.9999L14.9999 9.34313C15.0928 9.25027 15.1665 9.14003 15.2167 9.01869C15.267 8.89736 15.2929 8.76732 15.2929 8.63598C15.2929 8.50465 15.267 8.3746 15.2168 8.25327C15.1665 8.13193 15.0929 8.02168 15 7.92882ZM5.24962 5.99992C5.10129 5.99992 4.95628 5.95594 4.83295 5.87353C4.70961 5.79112 4.61348 5.67398 4.55671 5.53694C4.49995 5.39989 4.4851 5.24909 4.51403 5.10361C4.54297 4.95812 4.6144 4.82448 4.71929 4.71959C4.82418 4.6147 4.95782 4.54327 5.10331 4.51434C5.24879 4.4854 5.39959 4.50025 5.53664 4.55701C5.67368 4.61378 5.79081 4.70991 5.87323 4.83325C5.95564 4.95658 5.99962 5.10159 5.99962 5.24992C5.99962 5.44884 5.92061 5.6396 5.77995 5.78025C5.6393 5.92091 5.44854 5.99992 5.24962 5.99992Z" fill="#008C00"/>
</g>
<defs>
<clipPath id="clip0_3_35626">
<rect width="16" height="16" fill="white"/>
</clipPath>
</defs>
</svg>
