<svg width="360" height="66" viewBox="0 0 4170 650" fill="none" xmlns="http://www.w3.org/2000/svg">
<path fill-rule="evenodd" clip-rule="evenodd" d="M4169.19 0.51123H0V649.051H4169.19V0.51123Z" fill="white"/>
<path d="M3474.32 318.991C3535.09 318.991 3584.34 269.733 3584.34 208.971C3584.34 148.208 3535.09 98.9504 3474.32 98.9504C3413.56 98.9504 3364.3 148.208 3364.3 208.971C3364.3 269.733 3413.56 318.991 3474.32 318.991Z" fill="white"/>
<path d="M3474.32 318.991C3535.09 318.991 3584.34 269.733 3584.34 208.971C3584.34 148.208 3535.09 98.9504 3474.32 98.9504C3413.56 98.9504 3364.3 148.208 3364.3 208.971C3364.3 269.733 3413.56 318.991 3474.32 318.991Z" stroke="#2874F0" stroke-width="11.5811"/>
<path d="M3460.25 198.362H3470.29C3475.36 198.317 3479.37 197.005 3482.3 194.426C3485.29 191.848 3486.78 188.115 3486.78 183.229C3486.78 178.525 3485.54 174.882 3483.05 172.304C3480.61 169.68 3476.86 168.368 3471.78 168.368C3467.35 168.368 3463.71 169.658 3460.86 172.236C3458.01 174.77 3456.59 178.095 3456.59 182.212H3440.1C3440.1 177.145 3441.43 172.53 3444.1 168.368C3446.81 164.207 3450.57 160.972 3455.36 158.664C3460.2 156.312 3465.61 155.137 3471.59 155.137C3481.44 155.137 3489.18 157.624 3494.8 162.601C3500.45 167.532 3503.27 174.408 3503.27 183.229C3503.27 187.663 3501.85 191.848 3499 195.783C3496.2 199.674 3492.55 202.614 3488.08 204.604C3493.5 206.459 3497.62 209.378 3500.42 213.358C3503.27 217.34 3504.7 222.089 3504.7 227.609C3504.7 236.475 3501.64 243.533 3495.54 248.78C3489.48 254.027 3481.49 256.652 3471.59 256.652C3462.08 256.652 3454.3 254.118 3448.24 249.051C3442.18 243.984 3439.15 237.244 3439.15 228.829H3455.64C3455.64 233.172 3457.09 236.701 3459.98 239.416C3462.92 242.13 3466.85 243.488 3471.78 243.488C3476.9 243.488 3480.92 242.13 3483.86 239.416C3486.8 236.701 3488.28 232.766 3488.28 227.609C3488.28 222.407 3486.73 218.403 3483.67 215.598C3480.59 212.793 3476.01 211.391 3469.95 211.391H3460.25V198.362Z" fill="#2874F2"/>
<path d="M2084.59 318.991C2145.36 318.991 2194.61 269.733 2194.61 208.971C2194.61 148.208 2145.36 98.9504 2084.59 98.9504C2023.83 98.9504 1974.57 148.208 1974.57 208.971C1974.57 269.733 2023.83 318.991 2084.59 318.991Z" fill="#2874F0" stroke="#2874F0" stroke-width="11.5811"/>
<path d="M2117.88 255.294H2051.45V243.962L2084.36 208.066C2089.12 202.772 2092.49 198.362 2094.48 194.833C2096.5 191.259 2097.52 187.685 2097.52 184.111C2097.52 179.407 2096.19 175.606 2093.52 172.711C2090.9 169.816 2087.34 168.368 2082.87 168.368C2077.53 168.368 2073.39 169.998 2070.45 173.254C2067.51 176.512 2066.03 180.967 2066.03 186.622H2049.55C2049.55 180.606 2050.91 175.2 2053.62 170.404C2056.38 165.564 2060.29 161.809 2065.36 159.14C2070.47 156.471 2076.35 155.137 2083 155.137C2092.59 155.137 2100.15 157.556 2105.66 162.397C2111.24 167.193 2114.01 173.842 2114.01 182.348C2114.01 187.279 2112.61 192.458 2109.81 197.887C2107.04 203.27 2102.5 209.4 2096.17 216.277L2072.01 242.13H2117.88V255.294Z" fill="white"/>
<path d="M694.864 318.991C755.626 318.991 804.884 269.733 804.884 208.971C804.884 148.208 755.626 98.9504 694.864 98.9504C634.102 98.9504 584.844 148.208 584.844 208.971C584.844 269.733 634.102 318.991 694.864 318.991Z" fill="#2874F0"/>
<path d="M505.858 472.711H464.465L455.168 498.497H441.732L479.461 399.697H490.862L528.658 498.497H515.291L505.858 472.711ZM468.4 461.99H501.99L485.161 415.778L468.4 461.99ZM536.937 461.175C536.937 449.911 539.606 440.863 544.944 434.033C550.282 427.156 557.272 423.718 565.912 423.718C574.507 423.718 581.316 426.659 586.337 432.54V394.268H598.891V498.497H587.355L586.745 490.626C581.723 496.779 574.734 499.855 565.776 499.855C557.272 499.855 550.327 496.371 544.944 489.404C539.606 482.438 536.937 473.345 536.937 462.126V461.175ZM549.491 462.601C549.491 470.924 551.209 477.438 554.648 482.144C558.086 486.848 562.836 489.201 568.898 489.201C576.86 489.201 582.673 485.627 586.337 478.48V444.754C582.583 437.832 576.815 434.372 569.034 434.372C562.881 434.372 558.086 436.747 554.648 441.497C551.209 446.247 549.491 453.281 549.491 462.601ZM615.38 461.175C615.38 449.911 618.05 440.863 623.387 434.033C628.726 427.156 635.715 423.718 644.356 423.718C652.951 423.718 659.76 426.659 664.781 432.54V394.268H677.334V498.497H665.798L665.188 490.626C660.166 496.779 653.177 499.855 644.22 499.855C635.715 499.855 628.771 496.371 623.387 489.404C618.05 482.438 615.38 473.345 615.38 462.126V461.175ZM627.934 462.601C627.934 470.924 629.654 477.438 633.091 482.144C636.529 486.848 641.28 489.201 647.342 489.201C655.304 489.201 661.116 485.627 664.781 478.48V444.754C661.026 437.832 655.258 434.372 647.477 434.372C641.325 434.372 636.529 436.747 633.091 441.497C629.654 446.247 627.934 453.281 627.934 462.601ZM732.367 436.34C730.467 436.023 728.409 435.865 726.192 435.865C717.959 435.865 712.372 439.37 709.431 446.383V498.497H696.877V425.076H709.092L709.296 433.558C713.413 426.998 719.248 423.718 726.803 423.718C729.246 423.718 731.1 424.035 732.367 424.668V436.34ZM773.082 499.855C763.129 499.855 755.032 496.597 748.789 490.083C742.546 483.523 739.425 474.77 739.425 463.823V461.514C739.425 454.231 740.804 447.74 743.564 442.04C746.369 436.294 750.259 431.816 755.235 428.603C760.257 425.347 765.685 423.718 771.522 423.718C781.067 423.718 788.486 426.863 793.778 433.15C799.072 439.439 801.718 448.441 801.718 460.158V465.383H751.979C752.159 472.621 754.263 478.48 758.289 482.958C762.36 487.391 767.517 489.608 773.76 489.608C778.194 489.608 781.948 488.703 785.025 486.893C788.101 485.084 790.793 482.687 793.1 479.701L800.768 485.673C794.616 495.127 785.387 499.855 773.082 499.855ZM771.522 434.033C766.455 434.033 762.203 435.888 758.764 439.597C755.326 443.262 753.199 448.419 752.385 455.068H789.164V454.119C788.802 447.74 787.083 442.809 784.007 439.325C780.931 435.796 776.769 434.033 771.522 434.033ZM859.057 479.023C859.057 475.629 857.768 473.005 855.19 471.151C852.657 469.251 848.2 467.622 841.822 466.265C835.489 464.908 830.444 463.279 826.689 461.379C822.98 459.48 820.22 457.217 818.411 454.594C816.646 451.969 815.765 448.848 815.765 445.229C815.765 439.213 818.298 434.123 823.365 429.961C828.476 425.8 834.991 423.718 842.908 423.718C851.232 423.718 857.972 425.867 863.129 430.165C868.332 434.462 870.933 439.959 870.933 446.654H858.312C858.312 443.216 856.841 440.253 853.9 437.765C851.005 435.276 847.341 434.033 842.908 434.033C838.339 434.033 834.765 435.027 832.186 437.018C829.608 439.009 828.318 441.61 828.318 444.822C828.318 447.853 829.518 450.137 831.915 451.675C834.312 453.213 838.633 454.684 844.875 456.086C851.164 457.489 856.254 459.162 860.144 461.108C864.034 463.054 866.907 465.406 868.761 468.165C870.662 470.879 871.611 474.204 871.611 478.14C871.611 484.7 868.988 489.97 863.74 493.951C858.492 497.887 851.684 499.855 843.315 499.855C837.434 499.855 832.231 498.814 827.707 496.734C823.184 494.653 819.632 491.757 817.054 488.048C814.52 484.292 813.254 480.243 813.254 475.9H825.808C826.034 480.108 827.707 483.456 830.829 485.944C833.996 488.387 838.158 489.608 843.315 489.608C848.065 489.608 851.866 488.658 854.714 486.758C857.61 484.813 859.057 482.234 859.057 479.023ZM930.715 479.023C930.715 475.629 929.426 473.005 926.848 471.151C924.314 469.251 919.858 467.622 913.48 466.265C907.147 464.908 902.102 463.279 898.347 461.379C894.638 459.48 891.878 457.217 890.069 454.594C888.304 451.969 887.423 448.848 887.423 445.229C887.423 439.213 889.956 434.123 895.022 429.961C900.134 425.8 906.649 423.718 914.565 423.718C922.89 423.718 929.63 425.867 934.787 430.165C939.989 434.462 942.59 439.959 942.59 446.654H929.969C929.969 443.216 928.499 440.253 925.558 437.765C922.663 435.276 918.999 434.033 914.565 434.033C909.997 434.033 906.423 435.027 903.844 437.018C901.266 439.009 899.976 441.61 899.976 444.822C899.976 447.853 901.175 450.137 903.573 451.675C905.97 453.213 910.291 454.684 916.533 456.086C922.822 457.489 927.912 459.162 931.802 461.108C935.692 463.054 938.565 465.406 940.419 468.165C942.319 470.879 943.269 474.204 943.269 478.14C943.269 484.7 940.646 489.97 935.397 493.951C930.15 497.887 923.342 499.855 914.973 499.855C909.092 499.855 903.889 498.814 899.365 496.734C894.842 494.653 891.29 491.757 888.712 488.048C886.178 484.292 884.912 480.243 884.912 475.9H897.466C897.692 480.108 899.365 483.456 902.486 485.944C905.654 488.387 909.816 489.608 914.973 489.608C919.723 489.608 923.523 488.658 926.372 486.758C929.268 484.813 930.715 482.234 930.715 479.023Z" fill="#212121"/>
<path d="M1684.13 452.287C1684.13 461.967 1682.49 470.427 1679.24 477.665C1675.98 484.858 1671.36 490.355 1665.4 494.155C1659.42 497.954 1652.45 499.855 1644.49 499.855C1636.71 499.855 1629.81 497.954 1623.8 494.155C1617.78 490.31 1613.1 484.858 1609.75 477.801C1606.45 470.698 1604.75 462.487 1604.66 453.168V446.043C1604.66 436.543 1606.31 428.152 1609.61 420.868C1612.91 413.585 1617.58 408.02 1623.59 404.175C1629.66 400.284 1636.57 398.34 1644.36 398.34C1652.28 398.34 1659.24 400.262 1665.26 404.107C1671.32 407.907 1675.98 413.448 1679.24 420.733C1682.49 427.971 1684.13 436.408 1684.13 446.043V452.287ZM1671.17 445.908C1671.17 434.191 1668.8 425.211 1664.1 418.968C1659.4 412.679 1652.82 409.536 1644.36 409.536C1636.12 409.536 1629.64 412.679 1624.88 418.968C1620.17 425.211 1617.75 433.897 1617.63 445.025V452.287C1617.63 463.641 1620 472.576 1624.75 479.09C1629.54 485.559 1636.12 488.794 1644.49 488.794C1652.9 488.794 1659.42 485.74 1664.03 479.633C1668.65 473.48 1671.03 464.682 1671.17 453.236V445.908ZM1737.19 436.34C1735.29 436.023 1733.23 435.865 1731.02 435.865C1722.78 435.865 1717.19 439.37 1714.25 446.383V498.497H1701.69V425.076H1713.91L1714.12 433.558C1718.23 426.998 1724.07 423.718 1731.62 423.718C1734.06 423.718 1735.92 424.035 1737.19 424.668V436.34ZM1744.38 461.175C1744.38 449.911 1747.05 440.863 1752.38 434.033C1757.72 427.156 1764.72 423.718 1773.36 423.718C1781.95 423.718 1788.76 426.659 1793.78 432.54V394.268H1806.33V498.497H1794.79L1794.19 490.626C1789.17 496.779 1782.18 499.855 1773.22 499.855C1764.72 499.855 1757.77 496.371 1752.38 489.404C1747.05 482.438 1744.38 473.345 1744.38 462.126V461.175ZM1756.94 462.601C1756.94 470.924 1758.65 477.438 1762.09 482.144C1765.53 486.848 1770.28 489.201 1776.35 489.201C1784.3 489.201 1790.12 485.627 1793.78 478.48V444.754C1790.02 437.832 1784.26 434.372 1776.47 434.372C1770.32 434.372 1765.53 436.747 1762.09 441.497C1758.65 446.247 1756.94 453.281 1756.94 462.601ZM1856.35 499.855C1846.39 499.855 1838.29 496.597 1832.05 490.083C1825.81 483.523 1822.69 474.77 1822.69 463.823V461.514C1822.69 454.231 1824.07 447.74 1826.83 442.04C1829.63 436.294 1833.52 431.816 1838.5 428.603C1843.52 425.347 1848.95 423.718 1854.78 423.718C1864.33 423.718 1871.75 426.863 1877.04 433.15C1882.34 439.439 1884.98 448.441 1884.98 460.158V465.383H1835.25C1835.42 472.621 1837.53 478.48 1841.55 482.958C1845.62 487.391 1850.78 489.608 1857.02 489.608C1861.45 489.608 1865.21 488.703 1868.29 486.893C1871.37 485.084 1874.06 482.687 1876.36 479.701L1884.03 485.673C1877.88 495.127 1868.65 499.855 1856.35 499.855ZM1854.78 434.033C1849.72 434.033 1845.46 435.888 1842.02 439.597C1838.59 443.262 1836.46 448.419 1835.65 455.068H1872.42V454.119C1872.06 447.74 1870.35 442.809 1867.27 439.325C1864.2 435.796 1860.03 434.033 1854.78 434.033ZM1935.06 436.34C1933.16 436.023 1931.1 435.865 1928.88 435.865C1920.66 435.865 1915.06 439.37 1912.12 446.383V498.497H1899.57V425.076H1911.79L1911.98 433.558C1916.11 426.998 1921.94 423.718 1929.49 423.718C1931.94 423.718 1933.79 424.035 1935.06 424.668V436.34ZM2012.22 454.458C2001.04 451.246 1992.9 447.31 1987.78 442.65C1982.72 437.946 1980.18 432.155 1980.18 425.278C1980.18 417.498 1983.29 411.074 1989.48 406.008C1995.73 400.896 2003.82 398.34 2013.78 398.34C2020.56 398.34 2026.6 399.651 2031.89 402.275C2037.23 404.899 2041.34 408.518 2044.24 413.132C2047.18 417.746 2048.65 422.791 2048.65 428.264H2035.55C2035.55 422.293 2033.65 417.611 2029.86 414.219C2026.06 410.78 2020.69 409.06 2013.78 409.06C2007.35 409.06 2002.33 410.486 1998.71 413.336C1995.14 416.141 1993.35 420.054 1993.35 425.076C1993.35 429.101 1995.04 432.517 1998.44 435.322C2001.88 438.081 2007.69 440.615 2015.88 442.922C2024.11 445.229 2030.54 447.785 2035.15 450.59C2039.81 453.35 2043.24 456.584 2045.47 460.294C2047.72 464.003 2048.86 468.368 2048.86 473.39C2048.86 481.397 2045.73 487.821 2039.49 492.662C2033.25 497.457 2024.9 499.855 2014.45 499.855C2007.67 499.855 2001.33 498.566 1995.46 495.987C1989.58 493.362 1985.02 489.788 1981.82 485.265C1978.64 480.741 1977.07 475.606 1977.07 469.861H1990.16C1990.16 475.833 1992.36 480.561 1996.74 484.044C2001.18 487.482 2007.08 489.201 2014.45 489.201C2021.33 489.201 2026.6 487.799 2030.26 484.994C2033.93 482.189 2035.76 478.366 2035.76 473.526C2035.76 468.685 2034.07 464.953 2030.68 462.33C2027.28 459.66 2021.12 457.036 2012.22 454.458ZM2108.98 491.236C2104.09 496.981 2096.92 499.855 2087.47 499.855C2079.64 499.855 2073.67 497.593 2069.55 493.068C2065.48 488.5 2063.43 481.759 2063.38 472.848V425.076H2075.94V472.508C2075.94 483.637 2080.45 489.201 2089.51 489.201C2099.1 489.201 2105.48 485.627 2108.64 478.48V425.076H2121.19V498.497H2109.25L2108.98 491.236ZM2152.14 425.076L2152.48 433.218C2157.86 426.885 2165.12 423.718 2174.26 423.718C2184.53 423.718 2191.52 427.654 2195.23 435.525C2197.66 431.997 2200.84 429.147 2204.73 426.975C2208.67 424.804 2213.3 423.718 2218.64 423.718C2234.75 423.718 2242.94 432.246 2243.2 449.301V498.497H2230.65V450.047C2230.65 444.799 2229.45 440.886 2227.06 438.307C2224.66 435.684 2220.63 434.372 2214.98 434.372C2210.31 434.372 2206.44 435.774 2203.37 438.579C2200.29 441.339 2198.51 445.07 2198.01 449.776V498.497H2185.39V450.386C2185.39 439.71 2180.17 434.372 2169.71 434.372C2161.47 434.372 2155.85 437.878 2152.81 444.89V498.497H2140.26V425.076H2152.14ZM2274.01 425.076L2274.35 433.218C2279.73 426.885 2286.99 423.718 2296.13 423.718C2306.4 423.718 2313.39 427.654 2317.1 435.525C2319.54 431.997 2322.71 429.147 2326.6 426.975C2330.53 424.804 2335.18 423.718 2340.51 423.718C2356.62 423.718 2364.8 432.246 2365.08 449.301V498.497H2352.53V450.047C2352.53 444.799 2351.32 440.886 2348.93 438.307C2346.53 435.684 2342.5 434.372 2336.85 434.372C2332.19 434.372 2328.32 435.774 2325.24 438.579C2322.16 441.339 2320.38 445.07 2319.88 449.776V498.497H2307.26V450.386C2307.26 439.71 2302.03 434.372 2291.59 434.372C2283.35 434.372 2277.72 437.878 2274.69 444.89V498.497H2262.14V425.076H2274.01ZM2429.4 498.497C2428.68 497.05 2428.09 494.471 2427.64 490.761C2421.8 496.824 2414.83 499.855 2406.74 499.855C2399.5 499.855 2393.56 497.819 2388.89 493.747C2384.28 489.631 2381.98 484.429 2381.98 478.14C2381.98 470.494 2384.87 464.568 2390.66 460.361C2396.49 456.108 2404.68 453.982 2415.23 453.982H2427.43V448.215C2427.43 443.827 2426.12 440.343 2423.5 437.765C2420.88 435.141 2417.01 433.829 2411.9 433.829C2407.42 433.829 2403.67 434.96 2400.63 437.222C2397.6 439.484 2396.08 442.22 2396.08 445.433H2383.46C2383.46 441.769 2384.76 438.24 2387.33 434.847C2389.96 431.408 2393.49 428.695 2397.91 426.704C2402.39 424.713 2407.31 423.718 2412.64 423.718C2421.1 423.718 2427.73 425.845 2432.53 430.097C2437.32 434.304 2439.81 440.117 2439.99 447.536V481.33C2439.99 488.07 2440.86 493.431 2442.57 497.411V498.497H2429.4ZM2408.57 488.929C2412.51 488.929 2416.25 487.911 2419.77 485.876C2423.3 483.84 2425.86 481.194 2427.43 477.936V462.872H2417.6C2402.22 462.872 2394.53 467.373 2394.53 476.375C2394.53 480.312 2395.84 483.388 2398.46 485.604C2401.09 487.821 2404.46 488.929 2408.57 488.929ZM2495.16 436.34C2493.26 436.023 2491.2 435.865 2488.99 435.865C2480.75 435.865 2475.16 439.37 2472.22 446.383V498.497H2459.67V425.076H2471.88L2472.09 433.558C2476.2 426.998 2482.04 423.718 2489.59 423.718C2492.03 423.718 2493.9 424.035 2495.16 424.668V436.34ZM2532.01 480.108L2549.1 425.076H2562.54L2533.02 509.83C2528.45 522.044 2521.19 528.151 2511.25 528.151L2508.87 527.948L2504.18 527.066V516.887L2507.57 517.158C2511.82 517.158 2515.14 516.299 2517.49 514.58C2519.88 512.86 2521.85 509.717 2523.38 505.147L2526.17 497.683L2499.98 425.076H2513.69L2532.01 480.108Z" fill="#666666"/>
<path d="M3226.44 459.818V498.497H3213.41V399.696H3249.85C3260.66 399.696 3269.12 402.455 3275.23 407.974C3281.38 413.494 3284.46 420.799 3284.46 429.893C3284.46 439.483 3281.45 446.88 3275.44 452.082C3269.46 457.239 3260.89 459.818 3249.71 459.818H3226.44ZM3226.44 449.164H3249.85C3256.81 449.164 3262.15 447.535 3265.87 444.279C3269.58 440.976 3271.43 436.225 3271.43 430.028C3271.43 424.147 3269.58 419.442 3265.87 415.913C3262.15 412.386 3257.07 410.552 3250.6 410.417H3226.44V449.164ZM3343.63 498.497C3342.91 497.049 3342.32 494.47 3341.87 490.761C3336.03 496.823 3329.07 499.854 3320.96 499.854C3313.72 499.854 3307.78 497.818 3303.12 493.746C3298.51 489.63 3296.2 484.428 3296.2 478.14C3296.2 470.494 3299.1 464.568 3304.89 460.36C3310.72 456.108 3318.91 453.981 3329.45 453.981H3341.66V448.214C3341.66 443.826 3340.35 440.342 3337.73 437.764C3335.1 435.14 3331.23 433.828 3326.13 433.828C3321.64 433.828 3317.89 434.959 3314.86 437.221C3311.82 439.483 3310.31 442.22 3310.31 445.432H3297.7C3297.7 441.768 3298.98 438.239 3301.56 434.846C3304.18 431.408 3307.71 428.694 3312.15 426.703C3316.62 424.713 3321.53 423.718 3326.87 423.718C3335.33 423.718 3341.96 425.844 3346.75 430.097C3351.55 434.303 3354.04 440.117 3354.21 447.535V481.329C3354.21 488.069 3355.08 493.43 3356.79 497.41V498.497H3343.63ZM3322.8 488.928C3326.73 488.928 3330.47 487.91 3333.99 485.876C3337.52 483.84 3340.08 481.193 3341.66 477.936V462.871H3331.82C3316.45 462.871 3308.76 467.373 3308.76 476.375C3308.76 480.311 3310.06 483.387 3312.68 485.604C3315.31 487.82 3318.68 488.928 3322.8 488.928ZM3396.83 480.107L3413.93 425.075H3427.37L3397.85 509.829C3393.27 522.043 3386.02 528.15 3376.06 528.15L3373.69 527.947L3369.01 527.065V516.886L3372.4 517.157C3376.66 517.157 3379.96 516.298 3382.31 514.579C3384.7 512.86 3386.67 509.716 3388.21 505.147L3390.99 497.683L3364.8 425.075H3378.51L3396.83 480.107ZM3450.44 425.075L3450.77 433.218C3456.16 426.884 3463.42 423.718 3472.56 423.718C3482.83 423.718 3489.81 427.653 3493.53 435.525C3495.97 431.996 3499.14 429.146 3503.03 426.974C3506.97 424.803 3511.6 423.718 3516.94 423.718C3533.05 423.718 3541.23 432.245 3541.5 449.3V498.497H3528.95V450.046C3528.95 444.799 3527.75 440.886 3525.36 438.306C3522.96 435.683 3518.93 434.371 3513.28 434.371C3508.61 434.371 3504.74 435.774 3501.67 438.579C3498.59 441.338 3496.81 445.07 3496.31 449.775V498.497H3483.69V450.385C3483.69 439.709 3478.46 434.371 3468.02 434.371C3459.78 434.371 3454.14 437.877 3451.12 444.889V498.497H3438.57V425.075H3450.44ZM3590.97 499.854C3581.01 499.854 3572.92 496.596 3566.68 490.082C3560.43 483.522 3557.32 474.769 3557.32 463.822V461.514C3557.32 454.23 3558.7 447.739 3561.45 442.039C3564.26 436.294 3568.15 431.815 3573.13 428.603C3578.14 425.346 3583.57 423.718 3589.41 423.718C3598.95 423.718 3606.38 426.862 3611.67 433.149C3616.96 439.438 3619.6 448.44 3619.6 460.158V465.382H3569.87C3570.05 472.62 3572.16 478.479 3576.17 482.957C3580.25 487.39 3585.4 489.607 3591.65 489.607C3596.08 489.607 3599.83 488.703 3602.91 486.892C3605.99 485.084 3608.68 482.686 3610.99 479.701L3618.65 485.672C3612.5 495.127 3603.27 499.854 3590.97 499.854ZM3589.41 434.032C3584.35 434.032 3580.09 435.887 3576.65 439.597C3573.22 443.261 3571.09 448.418 3570.28 455.068H3607.05V454.118C3606.69 447.739 3604.98 442.808 3601.9 439.324C3598.83 435.796 3594.66 434.032 3589.41 434.032ZM3646.08 425.075L3646.48 434.303C3652.09 427.247 3659.42 423.718 3668.46 423.718C3683.98 423.718 3691.81 432.471 3691.95 449.978V498.497H3679.4V449.911C3679.35 444.618 3678.12 440.705 3675.72 438.171C3673.37 435.638 3669.69 434.371 3664.66 434.371C3660.59 434.371 3657.02 435.456 3653.94 437.628C3650.87 439.799 3648.47 442.649 3646.75 446.178V498.497H3634.19V425.075H3646.08ZM3727.91 407.296V425.075H3741.62V434.778H3727.91V480.311C3727.91 483.251 3728.52 485.468 3729.74 486.961C3730.97 488.408 3733.04 489.132 3735.98 489.132C3737.43 489.132 3739.42 488.861 3741.96 488.318V498.497C3738.66 499.401 3735.44 499.854 3732.32 499.854C3726.7 499.854 3722.48 498.157 3719.63 494.764C3716.78 491.372 3715.36 486.554 3715.36 480.311V434.778H3701.99V425.075H3715.36V407.296H3727.91Z" fill="#666666"/>
<path fill-rule="evenodd" clip-rule="evenodd" d="M903.322 203.18H1876.13V214.761H903.322V203.18Z" fill="#DBDBDB"/>
<path fill-rule="evenodd" clip-rule="evenodd" d="M2317 203.18H3289.81V214.761H2317V203.18Z" fill="#DBDBDB"/>
<path fill-rule="evenodd" clip-rule="evenodd" d="M760.174 178.645C765.235 173.786 765.398 165.745 760.539 160.685C755.682 155.626 747.643 155.463 742.583 160.32L692.712 208.194L669.193 230.775L643.038 204.62C638.077 199.659 630.034 199.659 625.072 204.62C620.111 209.581 620.111 217.626 625.073 222.587L660.189 257.697C664.989 262.496 672.746 262.574 677.643 257.874L692.713 243.407L760.174 178.645Z" fill="white"/>
</svg>
